<svg width="64" height="64" viewBox="0 0 64 64" fill="none" xmlns="http://www.w3.org/2000/svg">
<path fill-rule="evenodd" clip-rule="evenodd" d="M23.6629 46.4027C26.0136 48.5976 32.949 44.9859 39.1554 38.3387C45.3588 31.6912 48.4855 24.525 46.1348 22.3299C43.7842 20.1349 36.846 23.7466 30.6423 30.3939C24.4361 37.0413 21.3122 44.2077 23.6629 46.4027Z" stroke="#F4DC73" stroke-width="4" stroke-linecap="round" stroke-linejoin="round"/>
<path d="M8.55713 18.3335H8.61942M15.7607 45.6863H15.823" stroke="#F4DC73" stroke-width="4" stroke-linecap="round" stroke-linejoin="round"/>
<path d="M46.5412 22.854L55.9103 52.2769C56.3463 53.6518 55.0956 54.97 53.6969 54.6041L24.5415 46.9318" stroke="#F4DC73" stroke-width="4" stroke-linecap="round" stroke-linejoin="round"/>
<path d="M40.9688 51.2511C42.8992 49.8604 44.9074 48.0596 46.8378 46.0023C48.8693 43.8124 50.5687 41.5732 51.8557 39.4897" stroke="#F4DC73" stroke-width="4" stroke-linecap="round" stroke-linejoin="round"/>
<path d="M17.1927 37.5492C17.1927 37.5492 12.2551 37.1679 8 41.7655" stroke="#F4DC73" stroke-width="4" stroke-linecap="round" stroke-linejoin="round"/>
<path fill-rule="evenodd" clip-rule="evenodd" d="M25.5262 15.9205C25.5262 17.6666 24.1095 19.0833 22.3634 19.0833C20.6172 19.0833 19.2031 17.6666 19.2031 15.9205C19.2031 14.1743 20.6172 12.7603 22.3634 12.7603C24.1095 12.7603 25.5262 14.1743 25.5262 15.9205Z" stroke="#F4DC73" stroke-width="4" stroke-linecap="round" stroke-linejoin="round"/>
<path d="M33.9506 33.815C33.9506 33.815 25.295 24.8844 12.0366 28.6596" stroke="#F4DC73" stroke-width="4" stroke-linecap="round" stroke-linejoin="round"/>
<path d="M36.9355 9.3335C36.9355 9.3335 31.9229 16.1962 37.4752 24.447" stroke="#F4DC73" stroke-width="4" stroke-linecap="round" stroke-linejoin="round"/>
</svg>
