<svg width="48" height="48" viewBox="0 0 48 48" fill="none" xmlns="http://www.w3.org/2000/svg">
<path fill-rule="evenodd" clip-rule="evenodd" d="M34.0876 19.5082L22.4211 31.1747C22.0497 31.5461 21.5672 31.7305 21.0821 31.7305C20.5945 31.7305 20.112 31.5461 19.7406 31.1747L13.9074 25.3415C13.1672 24.6013 13.1672 23.4013 13.9074 22.6611C14.6476 21.9208 15.8451 21.9208 16.5853 22.6611L21.0821 27.1554L31.4072 16.8278C32.1474 16.0876 33.3474 16.0876 34.0876 16.8278C34.8278 17.568 34.8278 18.768 34.0876 19.5082ZM24 0C10.7672 0 0 10.7672 0 24C0 37.2354 10.7672 48 24 48C37.2328 48 48 37.2354 48 24C48 10.7672 37.2328 0 24 0Z" fill="#4DD67B"/>
</svg>
